# xmcd
#
# Track frame offsets:
#  150
#  12379
#  26366
#  36023
#  52963
#  68912
#  89255
#  103153
#  116764
#  132006
#  147945
#  163490
#  176956
#  189495
#  212841
#  224703
#
# Disc length: 3218 seconds
#
# Revision: 0
# Processed by: cddbd v1.5.1PL2 Copyright (c) Steve Scherf et al.
# Submitted via: Collectorz.com_Music_Collector 6.11
#
DISCID=f20c9010
DTITLE=Various Artist - A Retrospective Sampler
DYEAR=2006
DGENRE=Country general
TTITLE0=Boone Creek - One Way Track
TTITLE1=Rice, Tony - Church Street Blues
TTITLE2=Lawson and Quicksilver, Doyle - Lord I've Been A Hard Working Pilgrim
TTITLE3=Nickel Creek - House Of Tom Bombadil
TTITLE4=Keen, Robert Earl - Mariano
TTITLE5=Rowan and The Nashville Bluegrass Band, Peter - Trail Of Tears
TTITLE6=Parton, Dolly - I'm Gonna Sleep With One Eye Open
TTITLE7=Miller, Scott - Dear Sarah
TTITLE8=New Grass Revival - One More Love Song
TTITLE9=Lonesome River Band, The - When You Go Walking
TTITLE10=Watson, Doc - Greenville Trestle High
TTITLE11=Stuart, Marty - Hey Porter
TTITLE12=Hot Rize - Keep Your Lamp Trimmed and Burning
TTITLE13=Clark, Guy - Out In The Parking Lot
TTITLE14=Seldom Scene, The - Dry Run Creek
TTITLE15=Douglas, Jerry - Little Martha
EXTD=
EXTT0=
EXTT1=
EXTT2=
EXTT3=
EXTT4=
EXTT5=
EXTT6=
EXTT7=
EXTT8=
EXTT9=
EXTT10=
EXTT11=
EXTT12=
EXTT13=
EXTT14=
EXTT15=
PLAYORDER=
